<?xml version="1.0" encoding="utf-8"?>
<!-- Generator: Adobe Illustrator 15.0.0, SVG Export Plug-In  -->
<!DOCTYPE svg PUBLIC "-//W3C//DTD SVG 1.1//EN" "http://www.w3.org/Graphics/SVG/1.1/DTD/svg11.dtd" [
	<!ENTITY ns_flows "http://ns.adobe.com/Flows/1.0/">
]>
<svg version="1.1"
	 xmlns="http://www.w3.org/2000/svg" xmlns:xlink="http://www.w3.org/1999/xlink" xmlns:a="http://ns.adobe.com/AdobeSVGViewerExtensions/3.0/"
	 x="0px" y="0px" width="260px" height="90px" viewBox="0 0.213 290 90" overflow="visible" enable-background="new 0 0.213 290 90"
	 xml:space="preserve">
<defs>
</defs>
<polygon fill="#FF0000" points="0,71.193 0,90.428 34.086,56.342 34.086,75.548 51.929,57.705 51.929,19.265 "/>
<path fill="#FF0000" d="M90.404,0L57.612,32.85v19.234l32.792-32.849V0z M75.456,53.351V41.137L57.612,58.98v12.213h19.236
	L109.542,38.5V19.265L75.456,53.351z"/>
<path fill="#000000" d="M142.73,45.792c-5.005-0.023-8.493,3.417-8.512,8.183c-0.005,0.023,0,0.056,0,0.067
	c-0.003,2.261,1.042,4.331,2.991,6.218c1.515,1.495,2.269,2.309,2.269,3.727c0.002,0.031,0.002,0.038,0.002,0.038
	c-0.035,1.64-1.159,2.674-2.96,2.7c-0.05,0-0.101,0-0.152-0.002c-1.243,0.002-2.46-0.352-3.17-0.777l-0.476-0.281v5.489
	c0.859,0.262,2.07,0.474,3.632,0.478c0.023,0,0.047,0,0.069,0c4.814,0,8.463-3.23,8.482-8.512c-0.004-0.054-0.003-0.062-0.003-0.062
	c0-2.089-0.993-4.327-3.037-6.16c-1.916-1.733-2.254-2.475-2.263-3.461v-0.01c0.072-1.699,1.134-2.699,2.873-2.726
	c1.063,0.002,1.765,0.229,2.441,0.601l0.46,0.254l1.015-5.064C145.671,46.118,144.479,45.795,142.73,45.792z"/>
<path fill="#000000" d="M271.719,45.792c-5.006-0.023-8.493,3.417-8.513,8.183c-0.006,0.023,0,0.056-0.002,0.067
	c-0.004,2.261,1.042,4.331,2.992,6.218c1.516,1.495,2.27,2.309,2.27,3.727c0,0.031,0.002,0.038,0.002,0.038
	c-0.037,1.64-1.159,2.674-2.96,2.7c-0.051,0-0.101,0-0.153-0.002c-1.241,0.002-2.461-0.352-3.168-0.777l-0.478-0.281v5.489
	c0.86,0.262,2.071,0.474,3.634,0.478c0.022,0,0.047,0,0.069,0c4.814,0,8.459-3.23,8.479-8.512c-0.002-0.054,0-0.062,0-0.062
	c0-2.089-0.995-4.327-3.037-6.16c-1.914-1.733-2.255-2.475-2.263-3.461v-0.01c0.071-1.699,1.132-2.699,2.87-2.726
	c1.065,0.002,1.766,0.229,2.441,0.601l0.461,0.254v-0.003l1.015-5.062C274.659,46.118,273.468,45.795,271.719,45.792z"/>
<path fill="#000000" d="M224.998,66.023v-0.002l-0.634,0.26c-0.528,0.22-1.528,0.371-2.352,0.367
	c-1.077-0.014-1.693-0.413-2.156-1.19c-0.457-0.783-0.679-2.001-0.676-3.501c-0.002-0.046,0-0.093,0-0.145
	c0.031-3.845,1.244-7.11,2.864-9.127c0.923-1.19,2.255-1.883,3.355-1.877c0.942,0,1.528,0.142,1.927,0.324l0.443,0.204l1.021-5.097
	c-0.607-0.262-1.641-0.43-2.769-0.448c-2.615-0.003-5.405,0.952-7.619,3.225c-2.998,2.976-4.886,7.783-4.938,13.803
	c-0.005,0.034-0.003,0.082-0.003,0.123c0,1.481,0.228,3.61,1.286,5.424c1.045,1.811,2.994,3.265,6.17,3.265c0.011,0,0.024,0,0.036,0
	c1.203-0.002,2.19-0.102,2.986-0.332L224.998,66.023z"/>
<polygon fill="#000000" points="163.499,46.01 162.503,50.883 166.766,50.883 162.669,71.412 168.105,71.412 172.201,50.883 
	176.46,50.883 177.452,46.01 "/>
<polygon fill="#000000" points="178.802,46.01 177.806,50.883 182.069,50.883 177.972,71.412 183.407,71.412 187.505,50.883 
	191.762,50.883 192.754,46.01 "/>
<path fill="#000000" d="M208.003,53.93c-0.001-0.045-0.001-0.097-0.001-0.157c-0.002-1.498-0.167-3.463-1.046-5.113
	c-0.87-1.656-2.548-2.955-5.287-2.94c-2.263-0.003-4.179,0.896-5.707,2.379c-3.55,3.47-5.305,10.078-5.361,15.159
	c-0.003,0.043-0.002,0.092-0.002,0.131c0.002,1.403,0.193,3.431,1.092,5.164c0.882,1.727,2.569,3.15,5.313,3.15
	c0.013,0,0.026,0,0.04,0c2.256,0.005,4.149-0.861,5.747-2.455c3.4-3.396,5.154-10.003,5.212-15.3 M197.771,66.832
	c-0.739-0.019-1.046-0.343-1.311-0.931c-0.244-0.584-0.304-1.401-0.301-2.071c-0.002-0.039,0-0.081,0-0.125
	c0.006-3.541,1.412-10.414,3.517-12.477c0.462-0.451,0.89-0.635,1.339-0.637c0.638,0.018,0.895,0.277,1.14,0.811
	c0.225,0.532,0.291,1.314,0.289,2.041c0,0.051,0.002,0.096,0.002,0.136c0.008,2.552-1.213,10.514-3.479,12.647
	C198.578,66.643,198.134,66.834,197.771,66.832z"/>
<path fill="#000000" d="M244.929,53.93c-0.003-0.045-0.003-0.097-0.003-0.157c-0.002-1.498-0.167-3.463-1.045-5.113
	c-0.871-1.656-2.55-2.955-5.287-2.94c-2.264-0.003-4.179,0.896-5.709,2.379c-3.551,3.47-5.303,10.078-5.359,15.159
	c-0.004,0.043-0.002,0.092-0.002,0.131c0.002,1.403,0.19,3.431,1.091,5.164c0.883,1.727,2.568,3.15,5.313,3.15
	c0.012,0,0.025,0,0.039,0c2.257,0.005,4.147-0.861,5.748-2.455c3.4-3.396,5.154-10.003,5.214-15.3 M237.941,50.592
	c0.636,0.018,0.894,0.277,1.138,0.811c0.225,0.532,0.292,1.314,0.289,2.041c0,0.051,0,0.096,0,0.136
	c0.011,2.552-1.212,10.514-3.479,12.647c-0.386,0.416-0.832,0.607-1.196,0.605c-0.736-0.019-1.043-0.343-1.309-0.931
	c-0.243-0.584-0.303-1.401-0.299-2.071c-0.002-0.039,0-0.081,0-0.125c0.006-3.541,1.413-10.414,3.516-12.477
	C237.06,50.777,237.489,50.594,237.941,50.592z"/>
<path fill="#000000" d="M261.833,52.053c0-0.035-0.001-0.035,0-0.061c0.002-1.683-0.607-3.196-1.69-4.287
	c-1.407-1.409-3.558-1.8-5.716-1.802c-1.669,0-3.403,0.184-4.953,0.441l-0.295,0.049l-0.059,0.294l-4.943,24.723h5.328l1.907-9.829
	l0.408,0.002c0.666,0.018,0.966,0.163,1.241,0.609c0.273,0.462,0.44,1.35,0.437,2.741c0,0.064,0,6.477,0,6.477h5.242
	c0,0,0.044-4.393,0-7.103c-0.032-2.302-0.458-3.848-1.515-4.718C259.854,58.36,261.8,55.518,261.833,52.053z M256.302,52.597
	c-0.023,2.439-1.492,4.602-3.434,4.588l-0.526,0.001l1.326-6.802c0.23-0.03,0.525-0.049,0.835-0.049
	c1.386,0.013,1.754,0.999,1.796,2.218C256.299,52.595,256.304,52.595,256.302,52.597z"/>
<path fill="#000000" d="M283.961,46.01l-10.513,25.4h5.386l2.197-5.678h3.811l-0.125,5.68H290V46.01H283.961z M285.325,53.566
	c-0.057,1.103-0.115,2.169-0.141,2.946l-0.144,5.005h-2.562l1.799-4.877C284.568,55.894,284.946,54.751,285.325,53.566z"/>
<polygon fill="#000000" points="160.735,50.883 161.752,46.01 150.598,46.01 145.511,71.41 157.093,71.41 158.109,66.502 
	151.923,66.502 153.151,60.564 158.538,60.564 158.61,60.217 159.516,55.839 154.025,55.839 155.089,50.883 "/>
<path fill="#000000" d="M129.117,45.792c-5.006-0.023-8.492,3.417-8.512,8.183c-0.007,0.023,0,0.056,0,0.067
	c-0.004,2.261,1.042,4.331,2.99,6.218c1.515,1.495,2.269,2.309,2.269,3.727c0.003,0.031,0.003,0.038,0.003,0.038
	c-0.036,1.64-1.16,2.674-2.957,2.7c-0.052,0-0.104,0-0.156-0.002c-1.243,0.002-2.46-0.352-3.17-0.777l-0.476-0.281v5.489
	c0.859,0.262,2.071,0.474,3.632,0.478c0.023,0,0.047,0,0.069,0c4.815,0,8.462-3.23,8.482-8.512
	c-0.004-0.054-0.002-0.062-0.002-0.062c0-2.089-0.993-4.327-3.036-6.16c-1.916-1.733-2.255-2.475-2.265-3.461v-0.01
	c0.072-1.699,1.136-2.699,2.874-2.726c1.062,0.002,1.765,0.229,2.44,0.601l0.46,0.254l1.015-5.064
	C132.059,46.118,130.866,45.795,129.117,45.792z"/>
<path fill="#000000" d="M110.77,46.01l-10.515,25.4h5.389l2.194-5.678h3.812l-0.125,5.68h5.284V46.01H110.77z M112.132,53.565
	c-0.056,1.104-0.114,2.169-0.138,2.947l-0.147,5.005h-2.559l1.798-4.877C111.376,55.893,111.753,54.75,112.132,53.565z"/>
</svg>
